# xmcd
#
# Track frame offsets:
#	150
#	15331
#	36092
#	48362
#	71318
#	91033
#	113539
#	139944
#	152045
#	166741
#	187631
#	200564
#	214616
#	227794
#	233198
#
# Disc length: 3439 seconds
#
# Revision: 0
# Processed by: cddbd v1.5.2PL0 Copyright (c) Steve Scherf et al.
# Submitted via: audiograbber 1.83.01
#
DISCID=b00d6d0f
DTITLE=Various Artist - New Orleans Festival, Innsbruck 2007
DYEAR=2007
DGENRE=Blues
TTITLE0=Les Getrex and Creole Cooking - Don't you say a mumblin' word
TTITLE1=Les Getrex and Creole Cooking - Hey Babe
TTITLE2=Hot Rod - Lipstick, Powder and Paint
TTITLE3=Gail Anderson and The Incredible Southern Blues Band - Steamy windows
TTITLE4=Talismen Blues Band - Hoochie Coochie Man
TTITLE5=STB Dixie Train - Mardi Gras
TTITLE6=Alpendollar - Life is hard
TTITLE7=Acoustic Delta - Peace Bell Hiking Trail Blues
TTITLE8=Franz Posch and The Dixielanders Hall - Louisiana
TTITLE9=Cesar Galehr and Go West - Better get off with the Blues
TTITLE10=Hot Rod - Jump, jive an wail
TTITLE11=Talismen Blues Band - Got my mojo working
TTITLE12=STB Dixie Train - Everybody loves my Baby
TTITLE13=Gail Anderson - This little light of mine
TTITLE14=Jazz Orchester Tirol - Innsbruck, ich muss dich lassen
EXTD=
EXTT0=
EXTT1=
EXTT2=
EXTT3=
EXTT4=
EXTT5=
EXTT6=
EXTT7=
EXTT8=
EXTT9=
EXTT10=
EXTT11=
EXTT12=
EXTT13=
EXTT14=
PLAYORDER=
